<?xml version="1.0" standalone="no"?>
<!DOCTYPE svg PUBLIC "-//W3C//DTD SVG 20010904//EN"
 "http://www.w3.org/TR/2001/REC-SVG-20010904/DTD/svg10.dtd">
<svg version="1.0" xmlns="http://www.w3.org/2000/svg"
 width="512.000000pt" height="512.000000pt" viewBox="0 0 512.000000 512.000000"
 preserveAspectRatio="xMidYMid meet">

<g transform="translate(0.000000,512.000000) scale(0.100000,-0.100000)"
fill="#000000" stroke="none">
<path d="M2375 4899 c-910 -70 -1701 -670 -2019 -1532 -215 -580 -183 -1244
85 -1806 32 -68 59 -129 59 -136 0 -6 -63 -221 -139 -476 -76 -255 -142 -478
-145 -495 -20 -91 62 -210 160 -233 63 -15 35 -22 585 143 250 75 460 136 466
136 5 0 66 -27 134 -59 429 -205 921 -274 1389 -195 916 154 1655 832 1885
1729 56 217 69 331 70 585 0 169 -5 254 -18 340 -146 925 -790 1660 -1679
1916 -267 76 -552 105 -833 83z m470 -445 c708 -102 1307 -606 1534 -1289 111
-335 130 -669 55 -1015 -91 -424 -338 -822 -679 -1093 -221 -176 -531 -321
-805 -376 -476 -95 -899 -25 -1363 225 -109 59 -108 59 -490 -56 -187 -56
-341 -99 -343 -97 -3 2 41 157 96 343 113 379 114 384 61 481 -113 207 -186
396 -226 588 -90 434 -31 866 171 1265 102 199 182 308 354 480 172 172 281
252 481 353 246 125 471 188 759 211 76 6 290 -4 395 -20z"/>
</g>
</svg>
