<svg height="512" viewBox="0 0 64 64" width="512" xmlns="http://www.w3.org/2000/svg"><g id="Layer_2" data-name="Layer 2"><path d="m32 15 10 7v-2l-10-7-10 7v2z" fill="#1b75bb"/><path d="m40 34v-13.4l-8-5.6-8 5.6v13.4z" fill="#f1f1f2"/><path d="m24 20.6v1l8-5.6 8 5.6v-1l-8-5.6z" fill="#e6e7e8"/><circle cx="32" cy="23" fill="#26a9e0" r="3.5"/><circle cx="32" cy="23" fill="#1b75bb" r="3"/><path d="m24 36v9h1v2h14v-2h1v-9z" fill="#e6e7e8"/><path d="m32 39a3 3 0 0 1 3 3v5a0 0 0 0 1 0 0h-6a0 0 0 0 1 0 0v-5a3 3 0 0 1 3-3z" fill="#1b75bb"/><path d="m31.79 40v6h-1.86v-3.86a2.12 2.12 0 0 1 1.86-2.14z" fill="#26a9e0"/><path d="m34.07 42.14v3.86h-1.86v-6a2.12 2.12 0 0 1 1.86 2.14z" fill="#26a9e0"/><path d="m39 45h4v2h-4z" fill="#1b75bb"/><path d="m40 36h2v9h-2z" fill="#26a9e0"/><path d="m21 45h4v2h-4z" fill="#1b75bb" transform="matrix(-1 0 0 -1 46 92)"/><path d="m22 36h2v9h-2z" fill="#26a9e0" transform="matrix(-1 0 0 -1 46 81)"/><path d="m21 34h22v2h-22z" fill="#929497"/><path d="m24 36h16v1h-16z" fill="#d0d2d3"/><path d="m40 29v5h3v2h-1v9h1v2h13v-18z" fill="#e6e7e8"/><path d="m40 24h14l5 5h-19z" fill="#1b75bb"/><path d="m40 29h16v1h-16z" fill="#d0d2d3"/><path d="m54 36.75h-4a.25.25 0 0 0 -.25.25v6a.25.25 0 0 0 .25.25h4a.25.25 0 0 0 .25-.25v-6a.25.25 0 0 0 -.25-.25zm-2.25 6h-1.5v-2.5h1.5zm0-3h-1.5v-2.5h1.5zm2 3h-1.5v-2.5h1.5zm0-3h-1.5v-2.5h1.5z" fill="#1b75bb"/><g fill="#26a9e0"><path d="m50.25 37.25h1.5v2.5h-1.5z"/><path d="m50.25 40.25h1.5v2.5h-1.5z"/><path d="m52.25 40.25h1.5v2.5h-1.5z"/><path d="m52.25 37.25h1.5v2.5h-1.5z"/></g><path d="m48 36.75h-4a.25.25 0 0 0 -.25.25v6a.25.25 0 0 0 .25.25h4a.25.25 0 0 0 .25-.25v-6a.25.25 0 0 0 -.25-.25zm-2.25 6h-1.5v-2.5h1.5zm0-3h-1.5v-2.5h1.5zm2 3h-1.5v-2.5h1.5zm0-3h-1.5v-2.5h1.5z" fill="#1b75bb"/><path d="m46.25 40.25h1.5v2.5h-1.5z" fill="#26a9e0"/><path d="m44.25 40.25h1.5v2.5h-1.5z" fill="#26a9e0"/><path d="m44.25 37.25h1.5v2.5h-1.5z" fill="#26a9e0"/><path d="m46.25 37.25h1.5v2.5h-1.5z" fill="#26a9e0"/><path d="m54 30.75h-4a.25.25 0 0 0 -.25.25v3a.25.25 0 0 0 .25.25h4a.25.25 0 0 0 .25-.25v-3a.25.25 0 0 0 -.25-.25zm-2.25 3h-1.5v-2.5h1.5zm2 0h-1.5v-2.5h1.5z" fill="#1b75bb"/><path d="m50.25 31.25h1.5v2.5h-1.5z" fill="#26a9e0"/><path d="m52.25 31.25h1.5v2.5h-1.5z" fill="#26a9e0"/><path d="m48 30.75h-4a.25.25 0 0 0 -.25.25v3a.25.25 0 0 0 .25.25h4a.25.25 0 0 0 .25-.25v-3a.25.25 0 0 0 -.25-.25zm-2.25 3h-1.5v-2.5h1.5zm2 0h-1.5v-2.5h1.5z" fill="#1b75bb"/><path d="m44.25 31.25h1.5v2.5h-1.5z" fill="#26a9e0"/><path d="m46.25 31.25h1.5v2.5h-1.5z" fill="#26a9e0"/><path d="m24 29v5h-3v2h1v9h-1v2h-13v-18z" fill="#e6e7e8"/><path d="m24 24h-14l-5 5h19z" fill="#1b75bb"/><path d="m8 29h16v1h-16z" fill="#d0d2d3"/><path d="m14 36.75h-4a.25.25 0 0 0 -.25.25v6a.25.25 0 0 0 .25.25h4a.25.25 0 0 0 .25-.25v-6a.25.25 0 0 0 -.25-.25zm-2.25 6h-1.5v-2.5h1.5zm0-3h-1.5v-2.5h1.5zm2 3h-1.5v-2.5h1.5zm0-3h-1.5v-2.5h1.5z" fill="#1b75bb"/><path d="m10.25 40.25h1.5v2.5h-1.5z" fill="#26a9e0"/><path d="m12.25 40.25h1.5v2.5h-1.5z" fill="#26a9e0"/><path d="m12.25 37.25h1.5v2.5h-1.5z" fill="#26a9e0"/><path d="m10.25 37.25h1.5v2.5h-1.5z" fill="#26a9e0"/><path d="m20 36.75h-4a.25.25 0 0 0 -.25.25v6a.25.25 0 0 0 .25.25h4a.25.25 0 0 0 .25-.25v-6a.25.25 0 0 0 -.25-.25zm-2.25 6h-1.5v-2.5h1.5zm0-3h-1.5v-2.5h1.5zm2 3h-1.5v-2.5h1.5zm0-3h-1.5v-2.5h1.5z" fill="#1b75bb"/><path d="m16.25 40.25h1.5v2.5h-1.5z" fill="#26a9e0"/><path d="m18.25 40.25h1.5v2.5h-1.5z" fill="#26a9e0"/><path d="m18.25 37.25h1.5v2.5h-1.5z" fill="#26a9e0"/><path d="m16.25 37.25h1.5v2.5h-1.5z" fill="#26a9e0"/><path d="m14 30.75h-4a.25.25 0 0 0 -.25.25v3a.25.25 0 0 0 .25.25h4a.25.25 0 0 0 .25-.25v-3a.25.25 0 0 0 -.25-.25zm-2.25 3h-1.5v-2.5h1.5zm2 0h-1.5v-2.5h1.5z" fill="#1b75bb"/><path d="m10.25 31.25h1.5v2.5h-1.5z" fill="#26a9e0"/><path d="m12.25 31.25h1.5v2.5h-1.5z" fill="#26a9e0"/><path d="m20 30.75h-4a.25.25 0 0 0 -.25.25v3a.25.25 0 0 0 .25.25h4a.25.25 0 0 0 .25-.25v-3a.25.25 0 0 0 -.25-.25zm-2.25 3h-1.5v-2.5h1.5zm2 0h-1.5v-2.5h1.5z" fill="#1b75bb"/><path d="m16.25 31.25h1.5v2.5h-1.5z" fill="#26a9e0"/><path d="m18.25 31.25h1.5v2.5h-1.5z" fill="#26a9e0"/><path d="m6 47h52v2h-52z" fill="#bbbdbf"/><path d="m4 49h56v2h-56z" fill="#a6a8ab"/><path d="m32 26.5a3.5 3.5 0 1 0 -3.5-3.5 3.5 3.5 0 0 0 3.5 3.5zm0-6a2.5 2.5 0 1 1 -2.5 2.5 2.5 2.5 0 0 1 2.5-2.5zm-1.35 3.85a.48.48 0 0 1 0-.7l.85-.86v-1.37a.5.5 0 0 1 1 0v1.58a.47.47 0 0 1 -.15.35l-1 1a.48.48 0 0 1 -.7 0zm19.35 19.15h4a.5.5 0 0 0 .5-.5v-6a.5.5 0 0 0 -.5-.5h-4a.5.5 0 0 0 -.5.5v6a.5.5 0 0 0 .5.5zm.5-3h1v2h-1zm3 2h-1v-2h1zm0-3h-1v-2h1zm-3-2h1v2h-1zm-2.5-1h-4a.5.5 0 0 0 -.5.5v6a.5.5 0 0 0 .5.5h4a.5.5 0 0 0 .5-.5v-6a.5.5 0 0 0 -.5-.5zm-.5 3h-1v-2h1zm-3-2h1v2h-1zm0 3h1v2h-1zm3 2h-1v-2h1zm2.5-8h4a.5.5 0 0 0 .5-.5v-3a.5.5 0 0 0 -.5-.5h-4a.5.5 0 0 0 -.5.5v3a.5.5 0 0 0 .5.5zm3.5-1h-1v-2h1zm-3-2h1v2h-1zm-6.5 3h4a.5.5 0 0 0 .5-.5v-3a.5.5 0 0 0 -.5-.5h-4a.5.5 0 0 0 -.5.5v3a.5.5 0 0 0 .5.5zm3.5-1h-1v-2h1zm-3-2h1v2h-1zm-30.5 5h-4a.5.5 0 0 0 -.5.5v6a.5.5 0 0 0 .5.5h4a.5.5 0 0 0 .5-.5v-6a.5.5 0 0 0 -.5-.5zm-.5 3h-1v-2h1zm-3-2h1v2h-1zm0 3h1v2h-1zm3 2h-1v-2h1zm7-2.5v-3a.5.5 0 0 0 -.5-.5h-4a.5.5 0 0 0 -.5.5v6a.5.5 0 0 0 .5.5h4a.5.5 0 0 0 .5-.5zm-1-.5h-1v-2h1zm-3-2h1v2h-1zm0 3h1v2h-1zm3 2h-1v-2h1zm-5.5-12h-4a.5.5 0 0 0 -.5.5v3a.5.5 0 0 0 .5.5h4a.5.5 0 0 0 .5-.5v-3a.5.5 0 0 0 -.5-.5zm-3.5 1h1v2h-1zm3 2h-1v-2h1zm6.5-3h-4a.5.5 0 0 0 -.5.5v3a.5.5 0 0 0 .5.5h4a.5.5 0 0 0 .5-.5v-3a.5.5 0 0 0 -.5-.5zm-3.5 1h1v2h-1zm3 2h-1v-2h1zm40.5 15h-1.5v-1.5a.5.5 0 0 0 -.5-.5h-1.5v-17h2.5a.5.5 0 0 0 .46-.31.47.47 0 0 0 -.11-.54l-5-5a.47.47 0 0 0 -.35-.15h-13.5v-1.94l1.21.85a.52.52 0 0 0 .29.09.46.46 0 0 0 .23-.06.48.48 0 0 0 .27-.44v-2a.51.51 0 0 0 -.21-.41l-10-7a.51.51 0 0 0 -.58 0l-10 7a.51.51 0 0 0 -.21.41v2a.48.48 0 0 0 .27.44.49.49 0 0 0 .52 0l1.21-.85v1.91h-13.5a.47.47 0 0 0 -.35.15l-5 5a.47.47 0 0 0 -.11.54.5.5 0 0 0 .46.31h2.5v17h-1.5a.5.5 0 0 0 -.5.5v1.5h-1.5a.5.5 0 0 0 -.5.5v2a.5.5 0 0 0 .5.5h56a.5.5 0 0 0 .5-.5v-2a.5.5 0 0 0 -.5-.5zm-4.5-2h-12v-1.5a.5.5 0 0 0 -.5-.5h-.5v-8h.5a.5.5 0 0 0 .5-.5v-2a.5.5 0 0 0 -.5-.5h-2.5v-4h15zm-16 0v-1h3v1zm-4 0v-4.5a3.5 3.5 0 0 0 -7 0v4.5h-3v-1.5a.5.5 0 0 0 -.5-.5h-.5v-8h15v8h-.5a.5.5 0 0 0 -.5.5v1.5zm-1 0h-5v-4.5a2.5 2.5 0 0 1 5 0zm-13 0v-1h3v1zm2.5-12h18.5v1h-21v-1zm17.5 10h-1v-8h1zm-19-8h1v8h-1zm31.29-12 4 4h-17.29v-4zm-31.29-4.24 9.5-6.65 9.5 6.65v.74l-1.21-.85-8-5.6a.51.51 0 0 0 -.58 0l-8 5.6-1.21.85zm17 .6v12.64h-15v-12.64l7.5-5.25zm-29.29 3.64h13.29v4h-17.29zm-1.71 5h15v4h-2.5a.5.5 0 0 0 -.5.5v2a.5.5 0 0 0 .5.5h.5v8h-.5a.5.5 0 0 0 -.5.5v1.5h-12zm-2 18h51v1h-51zm53 3h-55v-1h55z"/></g></svg>