<svg width="19" height="19" viewBox="0 0 19 19" fill="none" xmlns="http://www.w3.org/2000/svg">
<path d="M0.671735 0.0519524C0.489899 0.11875 0.278375 0.311718 0.189313 0.493553C0.0928284 0.693945 0.0854065 1.06133 0.174469 1.25059C0.207867 1.3248 1.83326 3.11719 3.78892 5.23984C6.20474 7.85977 7.36998 9.15117 7.42935 9.26992L7.5147 9.44433L7.53326 14.0088C7.55181 18.5064 7.55181 18.577 7.62603 18.7031C7.71138 18.8479 7.97115 19 8.13814 19C8.37935 19 8.48697 18.8961 9.73384 17.4637C11.2739 15.6973 11.2108 15.7752 11.3407 15.5414L11.4483 15.3447L11.4669 12.3945L11.4854 9.44433L11.5856 9.25508C11.6524 9.12891 12.8399 7.81152 15.1852 5.26953C17.1112 3.18027 18.7254 1.41387 18.7774 1.33965C18.911 1.14668 18.9295 0.738476 18.8145 0.500977C18.718 0.300585 18.4954 0.100195 18.2987 0.0445309C18.0872 -0.0222664 0.84986 -0.0148449 0.671735 0.0519524Z" fill="black"/>
</svg>
