<svg width="21" height="20" viewBox="0 0 21 20" fill="none" xmlns="http://www.w3.org/2000/svg">
<path d="M7.04 0C4.42 0 2.29 2.13 2.29 4.75C2.29 7.32 4.3 9.4 6.92 9.49C7 9.48 7.08 9.48 7.14 9.49H7.21C8.43936 9.44898 9.60458 8.93148 10.4593 8.04691C11.314 7.16234 11.7912 5.98004 11.79 4.75C11.79 2.13 9.66 0 7.04 0ZM12.12 12.149C9.33 10.289 4.78 10.289 1.97 12.149C0.7 12.999 0 14.149 0 15.379C0 16.609 0.7 17.749 1.96 18.589C3.36 19.529 5.2 19.999 7.04 19.999C8.88 19.999 10.72 19.529 12.12 18.589C13.38 17.739 14.08 16.599 14.08 15.359C14.07 14.129 13.38 12.989 12.12 12.149ZM18.03 5.338C18.19 7.278 16.81 8.978 14.9 9.208H14.85C14.79 9.208 14.73 9.208 14.68 9.228C13.71 9.278 12.82 8.968 12.15 8.398C13.18 7.478 13.77 6.098 13.65 4.598C13.5814 3.818 13.3165 3.06806 12.88 2.418C13.404 2.16308 13.9821 2.03947 14.5645 2.05782C15.147 2.07617 15.7162 2.23595 16.2231 2.52335C16.73 2.81076 17.1593 3.21717 17.4741 3.70753C17.7889 4.19789 17.9797 4.75747 18.03 5.338Z" fill="#3C73B1"/>
<path d="M20.0283 14.59C19.9483 15.56 19.3283 16.4 18.2883 16.97C17.2883 17.52 16.0283 17.78 14.7783 17.75C15.4983 17.1 15.9183 16.29 15.9983 15.43C16.0983 14.19 15.5083 13 14.3283 12.05C13.6583 11.52 12.8783 11.1 12.0283 10.79C14.2383 10.15 17.0183 10.58 18.7283 11.96C19.6483 12.7 20.1183 13.63 20.0283 14.59Z" fill="#3C73B1"/>
</svg>
