<svg width="21" height="21" viewBox="0 0 21 21" fill="none" xmlns="http://www.w3.org/2000/svg">
<path d="M11.2588 0.906454C14.9912 1.19356 18.2355 3.6545 19.5398 7.19005C20.4217 9.56895 20.2904 12.2924 19.1912 14.5975C19.0599 14.8764 18.9492 15.1266 18.9492 15.1553C18.9492 15.1799 19.2076 16.0617 19.5193 17.1076C19.831 18.1535 20.1017 19.0682 20.114 19.1379C20.1961 19.5111 19.8597 19.9992 19.4578 20.0936C19.1994 20.1551 19.3142 20.1838 17.0584 19.507C16.033 19.1994 15.1717 18.9492 15.1471 18.9492C15.1265 18.9492 14.8764 19.06 14.5974 19.1912C12.8379 20.032 10.8199 20.315 8.90037 19.991C5.14334 19.3594 2.11229 16.5785 1.16893 12.8994C0.93924 12.0094 0.88592 11.5418 0.881819 10.5C0.881819 9.80684 0.902327 9.45821 0.955647 9.10548C1.55447 5.31153 4.19588 2.29688 7.84217 1.24689C8.93729 0.935165 10.1062 0.816221 11.2588 0.906454ZM9.33104 2.73165C6.42713 3.15001 3.97029 5.2172 3.03924 8.01856C2.58397 9.39259 2.50604 10.7625 2.81365 12.1816C3.1869 13.9207 4.19998 15.5531 5.59862 16.6647C6.50506 17.3865 7.77655 17.9813 8.90037 18.2068C10.8527 18.5965 12.5877 18.3094 14.4908 17.284C14.9379 17.042 14.9338 17.042 16.5006 17.5137C17.2676 17.7434 17.8992 17.9197 17.9074 17.9115C17.9197 17.9033 17.7392 17.2676 17.5137 16.5047C17.0502 14.9502 17.0461 14.9297 17.2635 14.5318C17.7269 13.6828 18.0264 12.9076 18.1904 12.1201C18.5596 10.34 18.3176 8.56817 17.489 6.93165C17.0707 6.11544 16.7426 5.66837 16.0371 4.9629C15.3316 4.25743 14.8846 3.92931 14.0642 3.51505C13.0553 3.00235 12.1324 2.74396 10.9512 2.64962C10.6394 2.62501 9.7617 2.66603 9.33104 2.73165Z" fill="black" fill-opacity="0.8"/>
</svg>
