<svg width="19" height="19" viewBox="0 0 19 19" fill="none" xmlns="http://www.w3.org/2000/svg">
<path d="M0.671979 0.0519524C0.490143 0.11875 0.278619 0.311718 0.189557 0.493553C0.0930726 0.693945 0.0856507 1.06133 0.174713 1.25059C0.208112 1.3248 1.8335 3.11719 3.78917 5.23984C6.20499 7.85977 7.37022 9.15117 7.4296 9.26992L7.51495 9.44433L7.5335 14.0088C7.55206 18.5064 7.55206 18.577 7.62628 18.7031C7.71163 18.8479 7.97139 19 8.13839 19C8.3796 19 8.48721 18.8961 9.73409 17.4637C11.2741 15.6973 11.211 15.7752 11.3409 15.5414L11.4485 15.3447L11.4671 12.3945L11.4857 9.44433L11.5858 9.25508C11.6526 9.12891 12.8401 7.81152 15.1855 5.26953C17.1114 3.18027 18.7257 1.41387 18.7776 1.33965C18.9112 1.14668 18.9298 0.738476 18.8148 0.500977C18.7183 0.300585 18.4956 0.100195 18.2989 0.0445309C18.0874 -0.0222664 0.850104 -0.0148449 0.671979 0.0519524Z" fill="black"/>
</svg>
