<svg width="79" height="27" viewBox="0 0 79 27" fill="none" xmlns="http://www.w3.org/2000/svg">
<rect width="79" height="27" rx="13.5" fill="#3C73B1"/>
<path d="M22.2195 20V7.63636H26.8558C27.8056 7.63636 28.6025 7.81345 29.2464 8.16761C29.8944 8.52178 30.3834 9.00876 30.7134 9.62855C31.0475 10.2443 31.2145 10.9446 31.2145 11.7294C31.2145 12.5223 31.0475 13.2266 30.7134 13.8423C30.3794 14.4581 29.8864 14.9431 29.2344 15.2972C28.5824 15.6474 27.7795 15.8224 26.8256 15.8224H23.7528V13.9812H26.5238C27.0792 13.9812 27.534 13.8846 27.8881 13.6914C28.2423 13.4982 28.5039 13.2326 28.6729 12.8945C28.846 12.5565 28.9325 12.1681 28.9325 11.7294C28.9325 11.2907 28.846 10.9044 28.6729 10.5703C28.5039 10.2363 28.2403 9.97668 27.8821 9.79155C27.5279 9.60239 27.0711 9.50781 26.5117 9.50781H24.4592V20H22.2195ZM36.9752 20.1811C36.0697 20.1811 35.2849 19.9819 34.6208 19.5835C33.9568 19.185 33.4416 18.6276 33.0754 17.9112C32.7132 17.1948 32.532 16.3577 32.532 15.3999C32.532 14.442 32.7132 13.6029 33.0754 12.8825C33.4416 12.162 33.9568 11.6026 34.6208 11.2042C35.2849 10.8058 36.0697 10.6065 36.9752 10.6065C37.8808 10.6065 38.6656 10.8058 39.3296 11.2042C39.9937 11.6026 40.5068 12.162 40.8691 12.8825C41.2353 13.6029 41.4184 14.442 41.4184 15.3999C41.4184 16.3577 41.2353 17.1948 40.8691 17.9112C40.5068 18.6276 39.9937 19.185 39.3296 19.5835C38.6656 19.9819 37.8808 20.1811 36.9752 20.1811ZM36.9873 18.4304C37.4783 18.4304 37.8888 18.2956 38.2188 18.0259C38.5489 17.7522 38.7944 17.386 38.9553 16.9272C39.1204 16.4684 39.2029 15.9573 39.2029 15.3938C39.2029 14.8263 39.1204 14.3132 38.9553 13.8544C38.7944 13.3916 38.5489 13.0233 38.2188 12.7496C37.8888 12.476 37.4783 12.3391 36.9873 12.3391C36.4842 12.3391 36.0657 12.476 35.7316 12.7496C35.4016 13.0233 35.1541 13.3916 34.9891 13.8544C34.8281 14.3132 34.7476 14.8263 34.7476 15.3938C34.7476 15.9573 34.8281 16.4684 34.9891 16.9272C35.1541 17.386 35.4016 17.7522 35.7316 18.0259C36.0657 18.2956 36.4842 18.4304 36.9873 18.4304ZM50.6021 13.1783L48.6099 13.3956C48.5536 13.1944 48.455 13.0052 48.3141 12.8281C48.1773 12.651 47.9921 12.5082 47.7587 12.3995C47.5253 12.2908 47.2395 12.2365 46.9015 12.2365C46.4467 12.2365 46.0643 12.3351 45.7544 12.5323C45.4486 12.7295 45.2976 12.9851 45.3017 13.299C45.2976 13.5687 45.3962 13.788 45.5975 13.957C45.8027 14.1261 46.1408 14.2649 46.6117 14.3736L48.1934 14.7116C49.0707 14.9008 49.7227 15.2006 50.1493 15.6112C50.58 16.0217 50.7973 16.5589 50.8013 17.223C50.7973 17.8066 50.6262 18.3217 50.2882 18.7685C49.9541 19.2112 49.4893 19.5573 48.8936 19.8068C48.298 20.0563 47.6138 20.1811 46.8411 20.1811C45.7061 20.1811 44.7926 19.9437 44.1003 19.4688C43.4081 18.9898 42.9956 18.3237 42.8627 17.4705L44.9938 17.2653C45.0904 17.6838 45.2956 17.9998 45.6096 18.2131C45.9235 18.4264 46.332 18.533 46.835 18.533C47.3542 18.533 47.7708 18.4264 48.0847 18.2131C48.4026 17.9998 48.5616 17.7362 48.5616 17.4222C48.5616 17.1566 48.459 16.9373 48.2537 16.7642C48.0525 16.5911 47.7386 16.4583 47.312 16.3658L45.7303 16.0337C44.8409 15.8486 44.1828 15.5367 43.7562 15.098C43.3296 14.6553 43.1183 14.0959 43.1223 13.4197C43.1183 12.8482 43.2733 12.3532 43.5872 11.9347C43.9051 11.5121 44.3458 11.1861 44.9093 10.9567C45.4767 10.7232 46.1307 10.6065 46.8713 10.6065C47.9579 10.6065 48.8132 10.8379 49.437 11.3008C50.0648 11.7636 50.4532 12.3894 50.6021 13.1783ZM57.2337 10.7273V12.4176H51.9031V10.7273H57.2337ZM53.2191 8.50568H55.4045V17.2109C55.4045 17.5047 55.4487 17.7301 55.5373 17.8871C55.6299 18.04 55.7506 18.1446 55.8995 18.201C56.0484 18.2573 56.2134 18.2855 56.3945 18.2855C56.5314 18.2855 56.6561 18.2754 56.7688 18.2553C56.8855 18.2352 56.9741 18.2171 57.0344 18.201L57.4027 19.9094C57.286 19.9497 57.119 19.994 56.9016 20.0423C56.6883 20.0906 56.4267 20.1187 56.1168 20.1268C55.5695 20.1429 55.0765 20.0604 54.6378 19.8793C54.1991 19.6941 53.851 19.4084 53.5934 19.022C53.3398 18.6357 53.2151 18.1527 53.2191 17.5732V8.50568Z" fill="white"/>
</svg>
