<svg width="18" height="18" viewBox="0 0 18 18" fill="none" xmlns="http://www.w3.org/2000/svg">
<path d="M9 16.239C8.7675 16.239 8.5425 16.209 8.355 16.1415C5.49 15.159 0.9375 11.6715 0.9375 6.519C0.9375 3.894 3.06 1.764 5.67 1.764C6.9375 1.764 8.1225 2.259 9 3.144C9.43563 2.7044 9.95444 2.35596 10.5262 2.11903C11.0979 1.88209 11.7111 1.7614 12.33 1.764C14.94 1.764 17.0625 3.9015 17.0625 6.519C17.0625 11.679 12.51 15.159 9.645 16.1415C9.4575 16.209 9.2325 16.239 9 16.239ZM5.67 2.889C3.6825 2.889 2.0625 4.5165 2.0625 6.519C2.0625 11.6415 6.99 14.4915 8.7225 15.084C8.8575 15.129 9.15 15.129 9.285 15.084C11.01 14.4915 15.945 11.649 15.945 6.519C15.945 4.5165 14.325 2.889 12.3375 2.889C11.1975 2.889 10.14 3.4215 9.4575 4.344C9.2475 4.629 8.7675 4.629 8.5575 4.344C8.22423 3.89181 7.78916 3.52445 7.28751 3.27168C6.78586 3.0189 6.23174 2.8878 5.67 2.889Z" fill="#FF0000"/>
</svg>
