<svg id="Layer_5" enable-background="new 0 0 64 64" height="512" viewBox="0 0 64 64" width="512" xmlns="http://www.w3.org/2000/svg"><g><g><g><path d="m60 6v4h-2-13.89l-5.55-4z" fill="#aab2bd"/></g><g><path d="m25.44 6-5.55 4h-13.89-2v-4z" fill="#aab2bd"/></g><g><path d="m58 10v10l-13.89-10z" fill="#ccd1d9"/></g><g><path d="m19.89 10-13.89 10v-10z" fill="#ccd1d9"/></g><g><path d="m58 20.02v-.02l-13.89-10-5.55-4-4.75-3.42c-.53-.38-1.16-.58-1.81-.58s-1.28.2-1.81.58l-4.75 3.42-5.55 4-13.89 10v.02c-.52.07-.98.3-1.33.65-.41.42-.67.99-.67 1.63 0 .46.13.9.39 1.28l1.61 2.42h2 48 2l1.61-2.42c.26-.38.39-.82.39-1.28 0-1.17-.87-2.14-2-2.28z" fill="#fcd770"/></g><g><path d="m51 20h-38l19-14z" fill="#ffeaa7"/></g><g><path d="m56 48v8h-48v-8h6 6 4 6 4 6 4 6z" fill="#ccd1d9"/></g><g><path d="m62 58v4h-60v-4c0-1.1.9-2 2-2h4 48 4c1.1 0 2 .9 2 2z" fill="#969faa"/></g><g><path d="m8 26h48v22h-48z" fill="#e6e9ed"/></g><g><path d="m44 32h6v16h-6z" fill="#69d6f4"/></g><g><path d="m34 32h6v16h-6z" fill="#69d6f4"/></g><g><path d="m24 32h6v16h-6z" fill="#69d6f4"/></g><g><path d="m14 32h6v16h-6z" fill="#69d6f4"/></g><g><circle cx="32" cy="14" fill="#69d6f4" r="2"/></g><g><path d="m60 39.46v16.54h-4v-4-4-8.54c.59.34 1.27.54 2 .54s1.41-.2 2-.54z" fill="#ffeaa7"/></g><g><path d="m8 52v4h-4v-16.54c.59.34 1.27.54 2 .54s1.41-.2 2-.54v8.54z" fill="#ffeaa7"/></g><g><path d="m60 39.46c-.59.34-1.27.54-2 .54s-1.41-.2-2-.54c-1.2-.69-2-1.98-2-3.46s.8-2.77 2-3.46c.59-.34 1.27-.54 2-.54 2.21 0 4 1.79 4 4 0 1.48-.8 2.77-2 3.46z" fill="#fcd770"/></g><g><path d="m8 39.46c-.59.34-1.27.54-2 .54s-1.41-.2-2-.54c-1.2-.69-2-1.98-2-3.46 0-2.21 1.79-4 4-4 .73 0 1.41.2 2 .54 1.2.69 2 1.98 2 3.46s-.8 2.77-2 3.46z" fill="#fcd770"/></g></g><g><path d="m61 55.184v-15.21c1.207-.914 2-2.348 2-3.974 0-2.757-2.243-5-5-5-.342 0-.677.035-1 .101v-4.101h1.535l1.91-2.866c.364-.544.555-1.178.555-1.831 0-1.359-.825-2.526-2-3.033v-8.27h2v-6h-22.122l-4.482-3.227c-1.404-1.012-3.39-1.012-4.792 0l-4.482 3.227h-22.122v6h2v8.27c-1.175.507-2 1.674-2 3.033 0 .653.191 1.287.555 1.832l1.91 2.865h1.535v4.101c-.323-.066-.658-.101-1-.101-2.757 0-5 2.243-5 5 0 1.627.793 3.061 2 3.974v15.21c-1.161.414-2 1.514-2 2.816v5h62v-5c0-1.302-.839-2.402-2-2.816zm-2-.184h-2v-14.101c.323.066.658.101 1 .101s.677-.035 1-.101zm-40-8h-4v-14h4zm36 2v2h-46v-2zm-26-2h-4v-14h4zm10 0h-4v-14h4zm10 0h-4v-14h4zm-40 6h46v2h-46zm52-17c0 1.654-1.346 3-3 3s-3-1.346-3-3 1.346-3 3-3 3 1.346 3 3zm-4-17.952-9.789-7.048h9.789zm2-11.048v2h-14.566l-2.778-2zm-28.227-3.604c.719-.519 1.733-.519 2.454 0l21.673 15.604h-3.572l-19.328-14.242-19.328 14.242h-3.572zm17.184 15.604h-31.914l15.957-11.758zm-42.957-12h17.345l-2.778 2h-14.567zm11.789 4-9.789 7.048v-7.048zm-11.57 12.026c-.143-.215-.219-.465-.219-.723 0-.719.584-1.303 1.303-1.303h51.395c.718 0 1.302.584 1.302 1.303 0 .258-.076.508-.219.723l-1.316 1.974h-50.93zm3.781 3.974h46v5.026c-1.207.914-2 2.348-2 3.974s.793 3.061 2 3.974v7.026h-4v-16h-8v16h-2v-16h-8v16h-2v-16h-8v16h-2v-16h-8v16h-4v-7.026c1.207-.914 2-2.348 2-3.974s-.793-3.061-2-3.974zm-3 6c1.654 0 3 1.346 3 3s-1.346 3-3 3-3-1.346-3-3 1.346-3 3-3zm0 8c.342 0 .677-.035 1-.101v14.101h-2v-14.101c.323.066.658.101 1 .101zm55 20h-58v-3c0-.551.448-1 1-1h56c.552 0 1 .449 1 1z"/><path d="m29 14c0 1.654 1.346 3 3 3s3-1.346 3-3-1.346-3-3-3-3 1.346-3 3zm4 0c0 .551-.448 1-1 1s-1-.449-1-1 .448-1 1-1 1 .449 1 1z"/></g></g></svg>