<svg width="24" height="24" viewBox="0 0 24 24" fill="none" xmlns="http://www.w3.org/2000/svg">
<path d="M8.54409 0.0419827C11.6343 0.365551 14.2463 2.53673 15.1325 5.50979C15.3623 6.28354 15.4374 6.81813 15.4374 7.70442C15.4374 8.52975 15.3717 9.0362 15.1794 9.73961L15.0857 10.0913L19.4701 14.4759C21.8758 16.8909 23.8828 18.9308 23.925 19.0152C23.9906 19.1465 24 19.4372 24 21.3036C24 23.3529 23.9953 23.4467 23.9062 23.6249C23.8453 23.7468 23.7468 23.8453 23.6249 23.9062C23.4467 23.9953 23.3529 24 21.2896 24H19.1419L18.9309 23.864C18.6495 23.6858 17.7492 22.7479 17.6695 22.551C17.6179 22.4197 17.6179 22.3024 17.6741 21.7866C17.721 21.374 17.7257 21.1676 17.6929 21.1582C17.6695 21.1489 17.3178 21.1113 16.9145 21.0738C16.1032 20.9941 16.0094 20.9707 15.8313 20.7831C15.6718 20.6096 15.6249 20.4126 15.5546 19.6014C15.5264 19.2356 15.4842 18.9261 15.4702 18.9167C15.4561 18.9073 15.1747 18.9308 14.8465 18.9683C14.2556 19.0386 14.2416 19.034 14.0399 18.9355C13.6976 18.7713 13.6367 18.5885 13.6367 17.7256V17.0128H12.938C12.5534 17.0128 12.1783 16.9894 12.1033 16.9659C12.0329 16.9378 11.5593 16.5017 11.0529 15.9952L10.1291 15.0808L9.66952 15.198C8.94737 15.3856 8.51595 15.4372 7.68126 15.4372C6.82312 15.4325 6.27447 15.3575 5.51012 15.1324C4.25807 14.7572 3.16547 14.1007 2.23699 13.1582C0.197147 11.0902 -0.510937 8.12178 0.37534 5.33629C1.47263 1.89429 4.91927 -0.337856 8.54409 0.0419827ZM6.86063 1.46755C3.02948 2.01621 0.581669 5.78647 1.65552 9.48638C2.07286 10.912 3.00603 12.1828 4.22056 12.9847C4.75514 13.3364 4.95678 13.4395 5.52418 13.6505C6.27447 13.9319 6.83719 14.0257 7.70471 14.0304C8.5394 14.0304 9.00364 13.96 9.69765 13.7303C10.2369 13.5474 10.4714 13.5474 10.7105 13.7256C10.809 13.8006 11.2826 14.2555 11.7609 14.7338L12.6285 15.606H13.5569C14.5933 15.606 14.7246 15.6342 14.9168 15.9061C15.0106 16.0374 15.02 16.1125 15.0341 16.7971L15.0481 17.538L15.2216 17.5099C15.3154 17.4958 15.6062 17.4677 15.8641 17.4536C16.3049 17.4255 16.3424 17.4302 16.4924 17.5334C16.7691 17.7256 16.8113 17.8475 16.8957 18.7713C16.9379 19.2356 16.9848 19.6295 17.0036 19.6436C17.0223 19.6623 17.4162 19.7092 17.8805 19.7514C18.8043 19.8405 18.9262 19.878 19.1091 20.1547C19.2404 20.3423 19.2451 20.4783 19.1419 21.3646L19.0622 22.0352L19.3388 22.3165L19.6108 22.5932H21.102H22.5932V21.102V19.6154L18.2275 15.2543C15.8266 12.8534 13.8008 10.8088 13.7258 10.7103C13.5476 10.4712 13.5476 10.2367 13.7304 9.69741C13.9602 9.00338 14.0306 8.53913 14.0306 7.70442C14.0259 6.83689 13.9321 6.27416 13.6507 5.52386C13.4397 4.95645 13.3365 4.7548 12.9848 4.22022C11.6718 2.22254 9.23341 1.12523 6.86063 1.46755Z" fill="black"/>
</svg>
