<svg width="19" height="17" viewBox="0 0 19 17" fill="none" xmlns="http://www.w3.org/2000/svg">
<path d="M9.5 16.9455C9.22875 16.9455 8.96625 16.9105 8.7475 16.8318C5.405 15.6855 0.09375 11.6168 0.09375 5.6055C0.09375 2.543 2.57 0.0580009 5.615 0.0580009C7.09375 0.0580009 8.47625 0.635501 9.5 1.668C10.0082 1.15513 10.6135 0.748621 11.2805 0.472196C11.9476 0.195771 12.663 0.0549667 13.385 0.0580009C16.43 0.0580009 18.9062 2.55175 18.9062 5.6055C18.9062 11.6255 13.595 15.6855 10.2525 16.8318C10.0337 16.9105 9.77125 16.9455 9.5 16.9455ZM5.615 1.3705C3.29625 1.3705 1.40625 3.26925 1.40625 5.6055C1.40625 11.5818 7.155 14.9068 9.17625 15.598C9.33375 15.6505 9.675 15.6505 9.8325 15.598C11.845 14.9068 17.6025 11.5905 17.6025 5.6055C17.6025 3.26925 15.7125 1.3705 13.3938 1.3705C12.0638 1.3705 10.83 1.99175 10.0337 3.068C9.78875 3.4005 9.22875 3.4005 8.98375 3.068C8.59493 2.54044 8.08735 2.11186 7.50209 1.81695C6.91684 1.52204 6.27036 1.3691 5.615 1.3705Z" fill="black"/>
</svg>
