<svg width="16" height="22" viewBox="0 0 16 22" fill="none" xmlns="http://www.w3.org/2000/svg">
<path d="M8.15973 9.86999C8.05973 9.85999 7.93973 9.85999 7.82973 9.86999C6.68193 9.83102 5.59437 9.34683 4.79736 8.51995C4.00034 7.69307 3.55647 6.58844 3.55973 5.43999C3.55973 2.98999 5.53973 0.999989 7.99973 0.999989C8.58214 0.989483 9.16092 1.0938 9.70302 1.30697C10.2451 1.52014 10.7399 1.838 11.1592 2.2424C11.5784 2.6468 11.9139 3.12982 12.1465 3.66388C12.3791 4.19794 12.5042 4.77258 12.5147 5.35499C12.5252 5.9374 12.4209 6.51618 12.2077 7.05828C11.9946 7.60038 11.6767 8.09518 11.2723 8.51444C10.8679 8.9337 10.3849 9.26919 9.85084 9.50178C9.31678 9.73437 8.74214 9.85948 8.15973 9.86999ZM3.15973 13.56C0.739727 15.18 0.739727 17.82 3.15973 19.43C5.90973 21.27 10.4197 21.27 13.1697 19.43C15.5897 17.81 15.5897 15.17 13.1697 13.56C10.4297 11.73 5.91973 11.73 3.15973 13.56Z" stroke="black" stroke-width="1.5" stroke-linecap="round" stroke-linejoin="round"/>
</svg>
