<svg width="22" height="21" viewBox="0 0 22 21" fill="none" xmlns="http://www.w3.org/2000/svg">
<path d="M4.95928 19.0313C3.93262 19.0313 3.28178 18.6988 2.86928 18.305C2.06262 17.535 1.49428 15.8988 3.30928 12.425L4.10678 10.9113C4.20762 10.71 4.20762 10.29 4.10678 10.0888L3.30928 8.575C1.48512 5.10125 2.06262 3.45625 2.86928 2.695C3.66678 1.925 5.39012 1.37375 9.02012 3.115L16.8668 6.86C18.8193 7.7875 19.8918 9.0825 19.8918 10.5C19.8918 11.9175 18.8193 13.2125 16.8759 14.14L9.02928 17.885C7.25095 18.7338 5.93095 19.0313 4.95928 19.0313ZM4.95928 3.28125C4.46428 3.28125 4.07928 3.395 3.84095 3.6225C3.17178 4.2525 3.43762 5.88875 4.53762 7.98L5.33512 9.5025C5.62845 10.0713 5.62845 10.9288 5.33512 11.4975L4.53762 13.0113C3.43762 15.1113 3.17178 16.7388 3.84095 17.3688C4.50095 18.0075 6.21512 17.7538 8.41512 16.7038L16.2618 12.9588C17.7009 12.2763 18.5168 11.375 18.5168 10.4913C18.5168 9.6075 17.6918 8.70625 16.2526 8.02375L8.40595 4.2875C7.01262 3.6225 5.81178 3.28125 4.95928 3.28125Z" fill="black"/>
<path d="M9.93657 11.1562H4.98657C4.61074 11.1562 4.29907 10.8587 4.29907 10.5C4.29907 10.1413 4.61074 9.84375 4.98657 9.84375H9.93657C10.3124 9.84375 10.6241 10.1413 10.6241 10.5C10.6241 10.8587 10.3124 11.1562 9.93657 11.1562Z" fill="black"/>
</svg>
