<svg width="21" height="20" viewBox="0 0 21 20" fill="none" xmlns="http://www.w3.org/2000/svg">
<path d="M18.1 7.221C16.29 7.221 15.55 5.941 16.45 4.371C16.97 3.461 16.66 2.301 15.75 1.781L14.02 0.791005C13.23 0.321005 12.21 0.601005 11.74 1.391L11.63 1.581C10.73 3.151 9.25 3.151 8.34 1.581L8.23 1.391C8.1222 1.20199 7.97789 1.03629 7.80545 0.90357C7.63302 0.770846 7.43591 0.673741 7.2256 0.617906C7.01529 0.562071 6.79597 0.548621 6.58041 0.578338C6.36486 0.608055 6.15736 0.680346 5.97 0.791005L4.24 1.781C3.33 2.301 3.02 3.471 3.54 4.381C4.45 5.941 3.71 7.221 1.9 7.221C0.86 7.221 0 8.07101 0 9.12101V10.881C0 11.921 0.85 12.781 1.9 12.781C3.71 12.781 4.45 14.061 3.54 15.631C3.02 16.541 3.33 17.701 4.24 18.221L5.97 19.211C6.76 19.681 7.78 19.401 8.25 18.611L8.36 18.421C9.26 16.851 10.74 16.851 11.65 18.421L11.76 18.611C12.23 19.401 13.25 19.681 14.04 19.211L15.77 18.221C16.68 17.701 16.99 16.531 16.47 15.631C15.56 14.061 16.3 12.781 18.11 12.781C19.15 12.781 20.01 11.931 20.01 10.881V9.12101C20.0048 8.61699 19.8015 8.13525 19.4442 7.77978C19.0868 7.4243 18.604 7.2236 18.1 7.221ZM10 13.251C8.21 13.251 6.75 11.791 6.75 10.001C6.75 8.21101 8.21 6.75101 10 6.75101C11.79 6.75101 13.25 8.21101 13.25 10.001C13.25 11.791 11.79 13.251 10 13.251Z" fill="black"/>
</svg>
